<?xml version="1.0" encoding="UTF-8" standalone="no"?>
<!-- Created with Inkscape (http://www.inkscape.org/) -->

<svg
   width="256"
   height="256"
   viewBox="0 0 67.733332 67.733333"
   version="1.1"
   id="svg1"
   inkscape:version="1.3.2 (091e20e, 2023-11-25, custom)"
   sodipodi:docname="logo.svg"
   xml:space="preserve"
   xmlns:inkscape="http://www.inkscape.org/namespaces/inkscape"
   xmlns:sodipodi="http://sodipodi.sourceforge.net/DTD/sodipodi-0.dtd"
   xmlns:xlink="http://www.w3.org/1999/xlink"
   xmlns="http://www.w3.org/2000/svg"
   xmlns:svg="http://www.w3.org/2000/svg"
   xmlns:rdf="http://www.w3.org/1999/02/22-rdf-syntax-ns#"
   xmlns:cc="http://creativecommons.org/ns#"
   xmlns:dc="http://purl.org/dc/elements/1.1/"><title
     id="title1">Miners Online Logo</title><sodipodi:namedview
     id="namedview1"
     pagecolor="#505050"
     bordercolor="#ffffff"
     borderopacity="1"
     inkscape:showpageshadow="0"
     inkscape:pageopacity="0"
     inkscape:pagecheckerboard="1"
     inkscape:deskcolor="#d1d1d1"
     inkscape:document-units="mm"
     inkscape:zoom="1.28"
     inkscape:cx="149.60938"
     inkscape:cy="151.17188"
     inkscape:window-width="1360"
     inkscape:window-height="715"
     inkscape:window-x="-8"
     inkscape:window-y="-8"
     inkscape:window-maximized="1"
     inkscape:current-layer="layer1"
     showguides="false" /><defs
     id="defs1"><linearGradient
       id="linearGradient6"
       inkscape:collect="always"><stop
         style="stop-color:#18ff2b;stop-opacity:1;"
         offset="0"
         id="stop7" /><stop
         style="stop-color:#18852b;stop-opacity:1;"
         offset="1"
         id="stop8" /></linearGradient><linearGradient
       id="linearGradient3"
       inkscape:collect="always"><stop
         style="stop-color:#000000;stop-opacity:1;"
         offset="0"
         id="stop3" /><stop
         style="stop-color:#000000;stop-opacity:0;"
         offset="1"
         id="stop6" /></linearGradient><linearGradient
       id="linearGradient4"
       inkscape:collect="always"><stop
         style="stop-color:#00cded;stop-opacity:1;"
         offset="0"
         id="stop4" /><stop
         style="stop-color:#0048c6;stop-opacity:1;"
         offset="1"
         id="stop5" /></linearGradient><radialGradient
       inkscape:collect="always"
       xlink:href="#linearGradient4"
       id="radialGradient5"
       cx="42.285824"
       cy="42.285835"
       fx="42.285824"
       fy="42.285835"
       r="24.999994"
       gradientUnits="userSpaceOnUse"
       gradientTransform="translate(-8.4191555,-8.4191692)" /><radialGradient
       inkscape:collect="always"
       xlink:href="#linearGradient3"
       id="radialGradient6"
       cx="33.475138"
       cy="33.475152"
       fx="33.475138"
       fy="33.475152"
       r="25.032547"
       gradientUnits="userSpaceOnUse"
       gradientTransform="translate(0.39152821,0.39151427)" /><radialGradient
       inkscape:collect="always"
       xlink:href="#linearGradient6"
       id="radialGradient8"
       cx="33.866665"
       cy="33.866669"
       fx="33.866665"
       fy="33.866669"
       r="33.866665"
       gradientUnits="userSpaceOnUse"
       gradientTransform="translate(0)" /><filter
       id="Blurx"
       x="-0.048000001"
       y="-0.024"
       width="1.096"
       height="1.048"><feGaussianBlur
         in="SourceGraphic"
         stdDeviation="0.4"
         id="feGaussianBlur1" /></filter><path
       id="Bolt"
       d="M15,28 L24,28 20,45 35,22 26,22 30,5" /></defs><g
     inkscape:label="Layer 1"
     inkscape:groupmode="layer"
     id="layer1"><rect
       style="fill:url(#radialGradient8);stroke:#511847;stroke-width:1.13456;stroke-dasharray:none;fill-opacity:1;stroke-opacity:1"
       id="rect2"
       width="66.59877"
       height="66.598778"
       x="0.56727999"
       y="0.56727999"
       rx="0"
       ry="9.3968859" /><path
       d="m 33.86667,8.8666662 c -13.807096,0 -24.9999986,11.1929038 -24.9999986,25.0000008 0,13.807096 11.1929026,25 24.9999986,25 1.689648,0 3.340039,-0.1681 4.935676,-0.48763 -0.643164,-0.307618 -0.713347,-2.615495 -0.07735,-3.931316 0.708009,-1.464843 2.929687,-5.175781 0.732424,-6.420899 -2.197266,-1.245116 -1.586915,-1.806642 -2.929688,-3.24707 -1.342775,-1.44043 -0.793622,-1.656966 -0.878907,-2.026368 -0.292968,-1.269529 1.293944,-3.173828 1.367187,-3.369141 0.07324,-0.195312 0.07324,-0.927733 0.04883,-1.14746 -0.02441,-0.219727 -1.000913,-0.805665 -1.245052,-0.830076 -0.244141,-0.02441 -0.36621,0.390625 -0.708009,0.415036 -0.341796,0.02441 -1.831053,-0.903319 -2.148437,-1.14746 -0.317382,-0.244139 -0.463866,-0.830076 -0.90332,-1.26953 -0.439453,-0.439454 -0.488282,-0.09766 -1.171874,-0.366211 -0.683595,-0.268555 -2.880859,-1.07422 -4.56543,-1.757812 -1.684569,-0.683595 -1.831054,-1.641863 -1.855468,-2.319336 -0.02442,-0.677475 -1.02539,-1.660157 -1.494856,-2.368164 -0.469336,-0.708009 -0.555925,-1.684572 -0.726823,-1.464845 -0.170899,0.219727 0.878906,2.783204 0.708007,2.856447 -0.170898,0.07324 -0.537109,-0.708009 -1.02539,-1.342776 -0.488281,-0.634763 0.512695,-0.292967 -1.049805,-3.369138 -1.562499,-3.076173 0.488282,-4.644793 0.585938,-6.250001 0.09766,-1.605208 1.318359,0.585937 0.683594,-0.439453 -0.634766,-1.025391 0.04883,-3.173828 -0.439454,-3.955078 -0.488281,-0.78125 -3.271484,0.878906 -3.271484,0.878906 0.07324,-0.756836 2.441406,-2.050781 4.15039,-3.247071 1.708985,-1.196288 2.752669,-0.268554 4.125975,0.170899 1.373307,0.439453 1.464845,0.292969 1.000977,-0.146484 -0.463865,-0.439453 0.195313,-0.65918 1.269533,-0.488281 1.074217,0.170898 1.367187,1.464843 3.002927,1.342772 1.635743,-0.122069 0.170898,0.317384 0.390625,0.732423 0.219727,0.415039 -0.244138,0.366211 -1.318358,1.098633 -1.074218,0.732422 0.02441,0.732422 1.92871,2.124023 1.904296,1.391601 1.318359,-0.927735 1.123046,-1.953125 -0.195312,-1.025391 1.391602,-0.219726 1.391602,-0.219726 1.171875,0.78125 0.95534,0.04297 1.80983,0.311522 0.854493,0.268556 3.17064,2.22754 3.17064,2.22754 -2.905273,1.586914 -1.07422,1.757812 -0.585938,2.124023 0.48828,0.366211 -1.000977,1.074219 -1.000977,1.074219 -0.610351,-0.610352 -0.708006,0.02442 -1.098631,0.244141 -0.390625,0.219726 -0.02441,0.781249 -0.02441,0.781249 -2.020249,0.317383 -1.5625,2.441407 -1.538086,2.954102 0.02441,0.512695 -1.293947,1.293945 -1.635743,2.026368 -0.341796,0.732422 0.878905,2.319336 0.244141,2.416991 -0.634766,0.09766 -1.269532,-2.392579 -4.687499,-1.464842 -1.03047,0.279751 -3.320312,1.464842 -2.099611,3.881835 1.220703,2.416991 3.247071,-0.683595 3.930664,-0.341796 0.683595,0.341796 -0.195313,1.879882 -0.04883,1.904296 0.146483,0.02441 1.92871,0.06712 2.026365,2.148437 0.09766,2.081314 2.70996,1.904297 3.271484,1.953125 0.561525,0.04883 2.441407,-1.538085 2.709962,-1.611328 0.268553,-0.07324 1.342773,-0.976563 3.686523,0.36621 2.343749,1.342773 3.540039,1.147461 4.345701,1.708984 0.805664,0.561525 0.244141,1.684572 1.000976,2.050782 0.756836,0.366211 3.78418,-0.122069 4.541016,1.123047 0.756836,1.245117 -3.125,7.495117 -4.345703,8.17871 -1.220701,0.683595 -1.782227,2.246095 -3.002928,3.247072 -1.220704,1.000977 -2.929687,2.239973 -4.541015,3.198241 -1.426302,0.848113 -1.682943,2.367515 -2.318295,2.847136 11.188475,-2.485482 19.55462,-12.467904 19.55462,-24.404752 0,-13.807097 -11.192901,-25.0000008 -24.999996,-25.0000008 z m 5.859374,23.4619158 c -0.341799,0.09765 -1.049805,0.732421 -2.783203,-0.292971 -1.733398,-1.025391 -2.929688,-0.830078 -3.076171,-1.000976 0,0 -0.146487,-0.41504 0.610351,-0.48828 1.5541,-0.150458 3.515625,1.440428 3.955076,1.464842 0.439454,0.02441 0.659181,-0.439453 1.440431,-0.187694 0.78125,0.251496 0.195312,0.407421 -0.146484,0.505079 z m -8.17871,-20.971681 c -0.170248,-0.123828 0.141014,-0.266406 0.326563,-0.512695 0.107094,-0.142318 0.02766,-0.378581 0.161717,-0.512695 0.366211,-0.3662108 2.172852,-0.8789068 1.819596,0.12207 -0.353124,1.000977 -2.039323,1.098633 -2.307876,0.90332 z m 4.370115,3.173829 c -0.610351,-0.02442 -2.047069,-0.176237 -1.782226,-0.439454 1.031511,-1.02539 -0.390625,-1.318359 -1.26953,-1.391601 -0.878908,-0.07324 -1.245118,-0.561524 -0.805665,-0.610352 0.439454,-0.04883 2.197267,0.02441 2.490234,0.268555 0.29297,0.244141 1.879884,0.878906 1.977539,1.342773 0.09766,0.463867 0,0.854492 -0.610352,0.830079 z m 5.297852,-0.170899 c -0.48828,0.390625 -2.945312,-1.401627 -3.417967,-1.806641 -2.050783,-1.757812 -3.149414,-1.171875 -3.580079,-1.464844 -0.430794,-0.292968 -0.277345,-0.683593 0.381836,-1.2695308 0.65918,-0.585938 2.514648,0.1953128 3.588868,0.3173828 1.074217,0.122071 2.319335,0.952148 2.343749,1.938868 0.02441,0.986653 1.171875,1.89414 0.683593,2.284765 z"
       id="path1"
       style="fill:url(#radialGradient5);stroke:url(#radialGradient6);stroke-width:0.065;stroke-dasharray:none;stroke-opacity:1" /><g
       id="g8"
       transform="matrix(1.3394531,0,0,1.3394531,0.38033917,1.0500657)"><path
         style="fill:#eecc00"
         d="M 13,29 H 23 L 18,48 37,21 H 27 L 32,1"
         id="path1-0" /><use
         xlink:href="#Bolt"
         style="fill:#eecc00"
         id="use2" /><path
         style="fill:#ffffee"
         d="M 30,5 15,28 20,25"
         id="path2" /><path
         style="fill:#ffffcc"
         d="m 29,25 6,-3 h -9 l -6,3 h 9 l -9,20 4,-17"
         id="path3" /><path
         style="fill:#bbaa00"
         d="M 20,25 26,22 30,5 20,25 h 9 l -9,20 15,-23 -6,3"
         id="path4" /></g><text
       xml:space="preserve"
       style="font-size:26.4583px;font-family:'Segoe UI';-inkscape-font-specification:'Segoe UI';fill:#ffffff;fill-opacity:1;stroke:#000000;stroke-width:0.0649999;stroke-dasharray:none;stroke-opacity:1"
       x="8.6816406"
       y="12.195638"
       id="text8"><tspan
         sodipodi:role="line"
         id="tspan8"
         style="font-size:26.4583px;stroke-width:0.065;fill:#ffffff;fill-opacity:1"
         x="8.6816406"
         y="12.195638" /></text><text
       xml:space="preserve"
       style="font-size:26.4583px;font-family:'Segoe UI';-inkscape-font-specification:'Segoe UI';fill:#ffffff;fill-opacity:1;stroke:#000000;stroke-width:0.0649999;stroke-dasharray:none;stroke-opacity:1"
       x="-1.3000665"
       y="19.654701"
       id="text9"><tspan
         sodipodi:role="line"
         id="tspan9"
         style="stroke-width:0.065"
         x="-1.3000665"
         y="19.654701">M</tspan></text><text
       xml:space="preserve"
       style="font-size:26.4583px;font-family:'Segoe UI';-inkscape-font-specification:'Segoe UI';fill:#ffffff;fill-opacity:1;stroke:#000000;stroke-width:0.0649999;stroke-dasharray:none;stroke-opacity:1"
       x="45.681965"
       y="4.9609375"
       id="text10"><tspan
         sodipodi:role="line"
         id="tspan10"
         style="stroke-width:0.065"
         x="45.681965"
         y="4.9609375" /></text><text
       xml:space="preserve"
       style="font-size:26.4583px;font-family:'Segoe UI';-inkscape-font-specification:'Segoe UI';fill:#ffffff;fill-opacity:1;stroke:#000000;stroke-width:0.0649999;stroke-dasharray:none;stroke-opacity:1"
       x="47.900993"
       y="66.248695"
       id="text11"><tspan
         sodipodi:role="line"
         id="tspan11"
         style="stroke-width:0.065"
         x="47.900993"
         y="66.248695">O</tspan></text></g><metadata
     id="metadata1"><rdf:RDF><cc:Work
         rdf:about=""><dc:title>Miners Online Logo</dc:title></cc:Work></rdf:RDF></metadata></svg>
